<svg id="Layer_1" data-name="Layer 1" xmlns="http://www.w3.org/2000/svg" xmlns:xlink="http://www.w3.org/1999/xlink" viewBox="0 0 44.62 44.62"><defs><style>.cls-1{fill:none;}.cls-2{clip-path:url(#clip-path);}.cls-3{fill:#fff;}</style><clipPath id="clip-path" transform="translate(-140 -361.38)"><rect class="cls-1" x="140" y="361.38" width="44.62" height="44.62"/></clipPath></defs><title>Facebook</title><g class="cls-2"><path class="cls-3" d="M184.62,368.82a7.71,7.71,0,0,0-7.44-7.44H147.44a7.71,7.71,0,0,0-7.44,7.44v29.74a7.71,7.71,0,0,0,7.44,7.44h14.87V389.14h-5.45v-7.43h5.45v-2.9c0-5,3.75-9.5,8.37-9.5h6v7.44h-6a1.82,1.82,0,0,0-1.43,2v3h7.44v7.43h-7.44V406h7.93a7.71,7.71,0,0,0,7.44-7.44Z" transform="translate(-140 -361.38)"/></g></svg>