<svg id="Layer_1" data-name="Layer 1" xmlns="http://www.w3.org/2000/svg" xmlns:xlink="http://www.w3.org/1999/xlink" viewBox="0 0 44.62 44.62"><defs><style>.cls-1{fill:none;}.cls-2{clip-path:url(#clip-path);}.cls-3{fill:#fff;}</style><clipPath id="clip-path" transform="translate(-140 -361.38)"><rect class="cls-1" x="140" y="361.38" width="44.62" height="44.62"/></clipPath></defs><title>Instagram</title><g class="cls-2"><path class="cls-3" d="M180.44,392.06a9.77,9.77,0,0,1-9.76,9.76H153.94a9.77,9.77,0,0,1-9.76-9.76V375.32a9.77,9.77,0,0,1,9.76-9.76h16.74a9.77,9.77,0,0,1,9.76,9.76Zm-9.76-30.68H153.94A13.94,13.94,0,0,0,140,375.32v16.74A13.94,13.94,0,0,0,153.94,406h16.74a13.94,13.94,0,0,0,13.94-13.94V375.32a13.94,13.94,0,0,0-13.94-13.94" transform="translate(-140 -361.38)"/><path class="cls-3" d="M162.31,390.66a7,7,0,1,1,7-7,7,7,0,0,1-7,7m0-18.12a11.16,11.16,0,1,0,11.15,11.15,11.16,11.16,0,0,0-11.15-11.15" transform="translate(-140 -361.38)"/><path class="cls-3" d="M174.3,370.21a1.49,1.49,0,1,1-1.49,1.49,1.49,1.49,0,0,1,1.49-1.49" transform="translate(-140 -361.38)"/></g></svg>