<svg id="Layer_1" data-name="Layer 1" xmlns="http://www.w3.org/2000/svg" xmlns:xlink="http://www.w3.org/1999/xlink" viewBox="0 0 44.62 44.62"><defs><style>.cls-1{fill:none;}.cls-2{clip-path:url(#clip-path);}.cls-3{fill:#fff;}</style><clipPath id="clip-path" transform="translate(-140 -361.38)"><rect class="cls-1" x="140" y="361.38" width="44.62" height="44.62"/></clipPath></defs><title>Snapchat</title><g class="cls-2"><path class="cls-3" d="M175.66,391a1.66,1.66,0,0,1-.78.64,9.74,9.74,0,0,1-2.62.67.58.58,0,0,0-.28.21,2.94,2.94,0,0,0-.18.68l0,.17-.1.46a.39.39,0,0,1-.39.29,2.18,2.18,0,0,1-.57-.07,7.8,7.8,0,0,0-1.52-.18,5,5,0,0,0-1.1.11,5.57,5.57,0,0,0-2.12,1.06,6,6,0,0,1-3.65,1.45H162a6.21,6.21,0,0,1-3.68-1.45,5.6,5.6,0,0,0-2.09-1.06,5.2,5.2,0,0,0-1.1-.11,7.17,7.17,0,0,0-1.49.18h0a3.7,3.7,0,0,1-.57.07.38.38,0,0,1-.42-.29,1.6,1.6,0,0,1-.25-.6l0-.1a2,2,0,0,0-.21-.68.26.26,0,0,0-.25-.17,11.7,11.7,0,0,1-2.65-.68,1.55,1.55,0,0,1-.78-.6.35.35,0,0,1,0-.18v-.07a.9.9,0,0,1,.32-.25,6.23,6.23,0,0,0,2.52-1A7.73,7.73,0,0,0,153,388a9.1,9.1,0,0,0,1.45-2.27v0a1.37,1.37,0,0,0,.14-1.2c-.28-.64-1.13-.92-1.74-1.1l-.1,0-.29-.11a3.09,3.09,0,0,1-.92-.53.69.69,0,0,1-.28-.64.85.85,0,0,1,.43-.53,1.12,1.12,0,0,1,1-.11,2.3,2.3,0,0,0,2,.25.38.38,0,0,0,.21-.35c0-.21,0-.43,0-.64v0c-.11-1.84-.25-4.14.32-5.45a7.46,7.46,0,0,1,1.62-2.34,6.77,6.77,0,0,1,1.95-1.27,7.55,7.55,0,0,1,3.05-.64h.53a7.48,7.48,0,0,1,3,.64,6.51,6.51,0,0,1,2,1.27,6.88,6.88,0,0,1,1.63,2.34c.6,1.31.43,3.61.32,5.42v.11c0,.14,0,.24,0,.39v.17a.41.41,0,0,0,.22.36,1.13,1.13,0,0,0,.49.1H170a3.8,3.8,0,0,0,1.28-.35,1.14,1.14,0,0,1,.42-.07,1.27,1.27,0,0,1,.5.1c.39.15.67.43.67.71a.67.67,0,0,1-.25.5,3.41,3.41,0,0,1-1,.6.55.55,0,0,1-.25.07l-.1,0c-.57.17-1.45.46-1.74,1.09a1.49,1.49,0,0,0,.14,1.24s0,0,0,.07c.32.71,2.09,4.18,5.74,4.78a.32.32,0,0,1,.24.32,1.64,1.64,0,0,1,0,.18m-2.23-29.64H151.15A11.21,11.21,0,0,0,140,372.57v22.28A11.2,11.2,0,0,0,151.15,406h22.28a11.22,11.22,0,0,0,11.19-11.19V372.57a11.22,11.22,0,0,0-11.19-11.19" transform="translate(-140 -361.38)"/></g></svg>