<svg id="Layer_1" data-name="Layer 1" xmlns="http://www.w3.org/2000/svg" xmlns:xlink="http://www.w3.org/1999/xlink" viewBox="0 0 44.62 44.62"><defs><style>.cls-1{fill:none;}.cls-2{clip-path:url(#clip-path);}.cls-3{fill:#fff;}</style><clipPath id="clip-path" transform="translate(-140 -361.38)"><rect class="cls-1" x="140" y="361.38" width="44.62" height="44.62"/></clipPath></defs><title>Tumblr</title><g class="cls-2"><path class="cls-3" d="M172.62,398.59a19.66,19.66,0,0,1-3.89,1.42,16.45,16.45,0,0,1-3.75.41,13.09,13.09,0,0,1-4.06-.58,8.77,8.77,0,0,1-3-1.66,6,6,0,0,1-1.71-2.26,9.92,9.92,0,0,1-.49-3.52V380.67H152v-4.74a10.29,10.29,0,0,0,3.37-1.83,9.25,9.25,0,0,0,2.26-2.87,13,13,0,0,0,1.16-4.27h4.77v8.45h8v5.26h-8v8.57a13.72,13.72,0,0,0,.32,3.75,2.45,2.45,0,0,0,1.13,1.3,4.72,4.72,0,0,0,2.56.67,9.33,9.33,0,0,0,5.05-1.63Zm9.54-34.76a8.06,8.06,0,0,0-5.91-2.45H148.37a8.36,8.36,0,0,0-8.37,8.37v27.88a8.38,8.38,0,0,0,8.37,8.37h27.88a8.4,8.4,0,0,0,8.37-8.37V369.75a8.07,8.07,0,0,0-2.46-5.92" transform="translate(-140 -361.38)"/></g></svg>